<svg width="59" height="33" viewBox="0 0 59 33" fill="none" xmlns="http://www.w3.org/2000/svg">
<rect x="0.0392456" y="0.779053" width="58.1912" height="25.8627" rx="12.9314" fill="#353945"/>
<g filter="url(#filter0_d_6534_196)">
<circle cx="43.2071" cy="13.711" r="9.11666" fill="#3772FF"/>
</g>
<path d="M19.8863 14.8417C19.38 14.9677 18.8737 15.0307 18.3673 15.0307C15.2027 15.0307 12.671 12.5115 12.671 9.36257C12.671 8.85873 12.7343 8.3549 12.8608 7.85107C12.9241 7.66213 12.8608 7.41022 12.671 7.22128C12.4811 7.03235 12.2912 6.96937 12.038 7.03235C9.06327 7.91405 6.97461 10.6851 6.97461 13.7711C6.97461 17.6128 10.076 20.6988 13.9368 20.6988C17.0382 20.6988 19.823 18.6205 20.6459 15.5975C20.7091 15.4085 20.6459 15.1566 20.456 14.9677C20.3294 14.8417 20.0762 14.7788 19.8863 14.8417Z" fill="#808191"/>
<path d="M15.2028 8.10363H15.8357V8.73342C15.8357 9.11129 16.0889 9.36321 16.4686 9.36321C16.8484 9.36321 17.1015 9.11129 17.1015 8.73342V8.10363H17.7345C18.1142 8.10363 18.3674 7.85171 18.3674 7.47384C18.3674 7.09597 18.1142 6.84405 17.7345 6.84405H17.1015V6.21426C17.1015 5.83639 16.8484 5.58447 16.4686 5.58447C16.0889 5.58447 15.8357 5.83639 15.8357 6.21426V6.84405H15.2028C14.823 6.84405 14.5698 7.09597 14.5698 7.47384C14.5698 7.85171 14.823 8.10363 15.2028 8.10363Z" fill="#808191"/>
<path d="M21.5328 10.6221H20.8999V9.99234C20.8999 9.61446 20.6467 9.36255 20.2669 9.36255C19.8872 9.36255 19.634 9.61446 19.634 9.99234V10.6221H19.0011C18.6213 10.6221 18.3682 10.874 18.3682 11.2519C18.3682 11.6298 18.6213 11.8817 19.0011 11.8817H19.634V12.5115C19.634 12.8894 19.8872 13.1413 20.2669 13.1413C20.6467 13.1413 20.8999 12.8894 20.8999 12.5115V11.8817H21.5328C21.9126 11.8817 22.1657 11.6298 22.1657 11.2519C22.1657 10.874 21.9126 10.6221 21.5328 10.6221Z" fill="#808191"/>
<defs>
<filter id="filter0_d_6534_196" x="27.6247" y="1.36155" width="31.1647" height="31.1647" filterUnits="userSpaceOnUse" color-interpolation-filters="sRGB">
<feFlood flood-opacity="0" result="BackgroundImageFix"/>
<feColorMatrix in="SourceAlpha" type="matrix" values="0 0 0 0 0 0 0 0 0 0 0 0 0 0 0 0 0 0 127 0" result="hardAlpha"/>
<feOffset dy="3.23284"/>
<feGaussianBlur stdDeviation="3.23284"/>
<feColorMatrix type="matrix" values="0 0 0 0 0 0 0 0 0 0 0 0 0 0 0 0 0 0 0.1 0"/>
<feBlend mode="normal" in2="BackgroundImageFix" result="effect1_dropShadow_6534_196"/>
<feBlend mode="normal" in="SourceGraphic" in2="effect1_dropShadow_6534_196" result="shape"/>
</filter>
</defs>
</svg>
